<svg width="1200" height="900" viewBox="0 0 1200 900" fill="none" xmlns="http://www.w3.org/2000/svg">
  <rect width="1200" height="900" rx="44" fill="#F5F1EA"/>
  <rect x="76" y="84" width="462" height="328" rx="34" fill="#0F0F0F"/>
  <rect x="114" y="126" width="150" height="18" rx="9" fill="#FF8A57"/>
  <rect x="114" y="178" width="228" height="48" rx="16" fill="#FAF7F2"/>
  <rect x="114" y="270" width="182" height="104" rx="22" fill="#FF4F00"/>
  <rect x="314" y="270" width="182" height="104" rx="22" fill="#1E1E1E" stroke="#FAF7F2" stroke-width="3"/>
  <rect x="572" y="84" width="552" height="210" rx="34" fill="#FFFFFF" stroke="#111111" stroke-width="4"/>
  <rect x="616" y="130" width="126" height="18" rx="9" fill="#FF4F00"/>
  <rect x="616" y="182" width="232" height="48" rx="16" fill="#111111"/>
  <rect x="910" y="126" width="170" height="120" rx="22" fill="#F0E8DC"/>
  <rect x="76" y="448" width="324" height="360" rx="34" fill="#FFFFFF" stroke="#111111" stroke-width="4"/>
  <rect x="440" y="448" width="324" height="360" rx="34" fill="#111111"/>
  <rect x="804" y="448" width="320" height="360" rx="34" fill="#FFFFFF" stroke="#111111" stroke-width="4"/>
  <circle cx="238" cy="562" r="82" fill="#FF4F00"/>
  <rect x="126" y="684" width="224" height="18" rx="9" fill="#111111"/>
  <rect x="490" y="516" width="224" height="18" rx="9" fill="#FF8A57"/>
  <rect x="490" y="562" width="224" height="140" rx="26" fill="#FAF7F2"/>
  <path d="M852 630C888 594 916 578 948 578C980 578 1014 594 1056 654" stroke="#111111" stroke-width="18" stroke-linecap="round"/>
  <circle cx="852" cy="630" r="14" fill="#FF4F00"/>
  <circle cx="948" cy="578" r="14" fill="#111111"/>
  <circle cx="1056" cy="654" r="14" fill="#FF4F00"/>
</svg>
