<svg width="1200" height="900" viewBox="0 0 1200 900" fill="none" xmlns="http://www.w3.org/2000/svg">
  <rect width="1200" height="900" rx="44" fill="#111111"/>
  <rect x="68" y="68" width="1064" height="764" rx="34" fill="#151515" stroke="#2C2C2C" stroke-width="4"/>
  <rect x="116" y="124" width="422" height="284" rx="28" fill="#FAF7F2"/>
  <rect x="160" y="170" width="184" height="18" rx="9" fill="#FF4F00"/>
  <rect x="160" y="220" width="236" height="68" rx="18" fill="#111111"/>
  <rect x="160" y="316" width="198" height="14" rx="7" fill="#7C776F"/>
  <rect x="160" y="348" width="156" height="14" rx="7" fill="#7C776F"/>
  <rect x="582" y="124" width="502" height="284" rx="28" fill="#1C1C1C"/>
  <path d="M642 330L734 246L834 274L936 198L1026 246" stroke="#FF4F00" stroke-width="16" stroke-linecap="round" stroke-linejoin="round"/>
  <circle cx="642" cy="330" r="15" fill="#FAF7F2"/>
  <circle cx="734" cy="246" r="15" fill="#FAF7F2"/>
  <circle cx="834" cy="274" r="15" fill="#FAF7F2"/>
  <circle cx="936" cy="198" r="15" fill="#FAF7F2"/>
  <circle cx="1026" cy="246" r="15" fill="#FAF7F2"/>
  <rect x="116" y="452" width="286" height="254" rx="28" fill="#FF4F00"/>
  <rect x="434" y="452" width="286" height="254" rx="28" fill="#FAF7F2"/>
  <rect x="752" y="452" width="332" height="254" rx="28" fill="#FAF7F2"/>
  <rect x="170" y="506" width="108" height="16" rx="8" fill="#FFE1D3"/>
  <rect x="170" y="548" width="140" height="68" rx="18" fill="#111111"/>
  <rect x="488" y="506" width="108" height="16" rx="8" fill="#FF4F00"/>
  <rect x="488" y="548" width="190" height="20" rx="10" fill="#111111"/>
  <rect x="488" y="590" width="156" height="20" rx="10" fill="#7A746B"/>
  <rect x="806" y="506" width="108" height="16" rx="8" fill="#FF4F00"/>
  <rect x="806" y="552" width="216" height="14" rx="7" fill="#111111"/>
  <rect x="806" y="586" width="184" height="14" rx="7" fill="#7A746B"/>
  <rect x="806" y="620" width="198" height="14" rx="7" fill="#7A746B"/>
</svg>
