<svg width="1200" height="900" viewBox="0 0 1200 900" fill="none" xmlns="http://www.w3.org/2000/svg">
  <rect width="1200" height="900" rx="44" fill="#0B0B0B"/>
  <rect x="44" y="44" width="1112" height="812" rx="32" fill="url(#paint0_linear)"/>
  <rect x="96" y="104" width="720" height="470" rx="28" fill="#FAF7F2"/>
  <rect x="132" y="140" width="170" height="18" rx="9" fill="#D8D2C8"/>
  <rect x="132" y="188" width="430" height="56" rx="18" fill="#111111"/>
  <rect x="132" y="264" width="320" height="18" rx="9" fill="#7A746B"/>
  <rect x="132" y="304" width="286" height="18" rx="9" fill="#7A746B"/>
  <rect x="132" y="360" width="186" height="132" rx="20" fill="#FF4F00"/>
  <rect x="340" y="360" width="186" height="132" rx="20" fill="#111111"/>
  <rect x="548" y="360" width="186" height="132" rx="20" fill="#F0E9DE"/>
  <rect x="850" y="104" width="250" height="260" rx="28" fill="#131313"/>
  <rect x="886" y="144" width="122" height="18" rx="9" fill="#FF824B"/>
  <rect x="886" y="188" width="128" height="76" rx="24" fill="#FF4F00"/>
  <rect x="886" y="286" width="178" height="14" rx="7" fill="#C7C7C7"/>
  <rect x="886" y="318" width="162" height="14" rx="7" fill="#8D8D8D"/>
  <rect x="850" y="396" width="250" height="178" rx="28" fill="#FAF7F2"/>
  <path d="M892 520C932 474 962 456 992 456C1024 456 1058 480 1092 532" stroke="#111111" stroke-width="20" stroke-linecap="round"/>
  <circle cx="892" cy="520" r="16" fill="#FF4F00"/>
  <circle cx="996" cy="456" r="16" fill="#111111"/>
  <circle cx="1092" cy="532" r="16" fill="#FF4F00"/>
  <rect x="96" y="624" width="1004" height="160" rx="28" fill="#151515"/>
  <rect x="136" y="668" width="164" height="18" rx="9" fill="#FF824B"/>
  <rect x="136" y="710" width="248" height="16" rx="8" fill="#D0D0D0"/>
  <rect x="430" y="664" width="180" height="76" rx="22" fill="#FAF7F2"/>
  <rect x="650" y="664" width="180" height="76" rx="22" fill="#1F1F1F"/>
  <rect x="870" y="664" width="190" height="76" rx="22" fill="#FF4F00"/>
  <defs>
    <linearGradient id="paint0_linear" x1="113" y1="94" x2="1047" y2="812" gradientUnits="userSpaceOnUse">
      <stop stop-color="#1A1A1A"/>
      <stop offset="1" stop-color="#0D0D0D"/>
    </linearGradient>
  </defs>
</svg>
