<svg width="148" height="30" viewBox="0 0 148 30" fill="none" xmlns="http://www.w3.org/2000/svg">
<g clip-path="url(#clip0_1591_2358)">
<path d="M16.4231 28.3774C14.832 29.2882 12.9026 29.417 10.8085 29.417H0V28.5522H1.28934C2.7067 28.5522 3.2645 28.1658 3.2645 26.5282V3.61088C3.25536 1.71567 2.91702 1.45807 0.81384 1.45807H0V0.593262H9.99469C12.2259 0.593262 14.3656 0.768063 15.7007 1.76167C17.5021 3.09568 18.5263 5.16569 18.5263 7.53931C18.5263 10.8605 15.7373 13.7493 12.5642 14.5314C15.911 15.0926 20.282 17.2914 20.282 22.1674C20.282 25.1482 18.6086 27.1262 16.4231 28.3774ZM13.9359 3.17848C12.9026 1.88127 11.6224 1.44887 9.60148 1.44887H6.25468V14.3565C6.25468 14.3565 8.56818 14.4025 9.98554 14.3105C13.4146 14.0989 15.5178 12.2865 15.5178 8.48691C15.5178 7.0241 15.2618 4.81609 13.9267 3.17848H13.9359ZM9.7295 15.2582H6.25468V28.543H10.0678C12.7288 28.543 13.881 27.899 14.8686 27.209C16.4963 26.0866 17.1821 24.2282 17.1821 22.379C17.1821 19.0118 16.0665 15.3042 9.72036 15.2582H9.7295Z" fill="black"/>
<path d="M40.0886 0.676025H40.4726L48.7482 25.4426C49.7815 28.5522 50.4216 28.5522 53.3386 28.5522V29.417H43.3074V28.5522H46.5627L43.6457 19.1497H34.0442L30.3957 28.5522H33.9528V29.417H26.0613V28.5522C28.3748 28.5522 29.4904 28.4694 30.2676 26.4362L40.0886 0.676025ZM43.3439 18.2757L39.101 5.33126L34.3368 18.2757H43.3439Z" fill="black"/>
<path d="M75.7602 4.30089L70.1822 16.2518V28.543H73.529V29.4078H63.7537V28.543H65.4729C66.8445 28.543 67.192 27.807 67.192 26.9422V16.4174L61.5774 5.28529C59.9954 2.13887 60.0777 1.44887 57.8465 1.44887H57.115V0.593262H65.8203V1.45807H63.1228L69.7249 15.433L76.2722 1.45807H72.9254V0.593262H79.8751V1.45807C77.1318 1.45807 76.9581 1.71567 75.7602 4.31009V4.30089Z" fill="black"/>
<path d="M95.4753 0.676025H95.8594L104.135 25.4426C105.168 28.5522 105.808 28.5522 108.725 28.5522V29.417H98.6941V28.5522H101.949L99.0324 19.1497H89.4309L85.7824 28.5522H89.3395V29.417H81.448V28.5522C83.7615 28.5522 84.8771 28.4694 85.6544 26.4362L95.4753 0.676025ZM98.7307 18.2757L94.4877 5.33126L89.7236 18.2757H98.7307Z" fill="black"/>
<path d="M139.258 29.417V28.5522H140.118C141.617 28.5522 141.791 28.5522 141.791 26.7398V1.58687L130.772 29.9783H130.388L118.802 1.58687V28.5522H122.277V29.417H114.943V28.5522H115.977C117.431 28.5062 117.952 28.2026 117.952 26.611V3.86848C117.952 1.84447 117.824 1.44887 115.977 1.44887H114.943V0.593262H121.674L131.668 25.3598L141.361 0.593262H148.009V1.45807H144.79V28.5522H148.009V29.417H139.258Z" fill="black"/>
</g>
<defs>
<clipPath id="clip0_1591_2358">
<rect width="148" height="29.385" fill="white" transform="translate(0 0.593262)"/>
</clipPath>
</defs>
</svg>
